<svg width="210" height="90" viewBox="0 0 210 90" fill="none" xmlns="http://www.w3.org/2000/svg">
<g clip-path="url(#clip0_1313_25735)">
<path d="M88.0834 50.2618C88.0834 53.2492 88.5168 57.6248 85.8381 57.684C83.2061 57.7702 83.4265 53.1318 83.4826 50.0594C83.5367 47.1883 83.2877 43.0163 85.8381 42.9862C88.1661 42.9571 88.0845 47.3348 88.0845 50.2618H88.0834ZM94.5407 50.1466C94.4273 45.3898 90.2101 41.9125 85.9208 41.9125C81.3475 41.9125 77.1642 45.3629 77.0265 50.1466C76.9131 55.0746 81.2087 58.9591 85.9483 58.8998C90.1624 58.8438 94.6509 55.3643 94.5396 50.1466H94.5407ZM69.0848 50.2618C69.0848 53.2492 69.5287 57.6248 66.8384 57.684C64.2064 57.7702 64.4299 53.1318 64.4861 50.0594C64.5391 47.1883 64.2911 43.0163 66.8384 42.9862C69.1664 42.9571 69.0848 47.3348 69.0848 50.2618ZM75.5409 50.1466C75.4307 45.3898 71.2103 41.9125 66.9232 41.9125C62.351 41.9125 58.1656 45.3629 58.0268 50.1466C57.9166 55.0746 62.2122 58.9591 66.9518 58.8998C71.1626 58.8438 75.6511 55.3643 75.5409 50.1466ZM121.78 58.6769V31C121.365 31.2014 119.535 32.3343 118.149 32.9998C117.407 33.3714 116.586 33.7774 115.768 34.1478V58.6769H121.78ZM127.692 33.156C123.393 33.156 123.393 39.9352 127.692 39.9352C131.992 39.9352 131.995 33.156 127.692 33.156ZM130.744 58.6715V42.1009C130.328 42.3023 128.555 42.9571 127.141 43.5365C126.405 43.8563 125.547 44.1891 124.759 44.4809V48.1575C124.77 48.4063 124.759 48.6605 124.759 48.8931V58.5563H124.738V58.6715H130.744ZM161.252 48.1015H156.79C156.79 48.1015 156.518 43.1606 159.064 43.1606C161.123 43.1606 161.229 45.3618 161.252 46.4355V48.1005V48.1015ZM165.63 48.248C165.63 44.2386 162.443 42.0578 159.064 42.0578C155.238 42.0288 151.499 45.7678 151.386 50.8412C151.304 55.332 155.045 58.9569 159.313 58.9569C160.537 58.9709 161.747 58.678 162.842 58.1029C163.935 57.5289 164.882 56.6878 165.603 55.6518V54.0871C165.603 54.0871 164.894 55.3923 162.692 55.3923C156.747 55.3923 156.747 49.1591 156.747 49.1591H165.603L165.63 48.248ZM150.174 57.4783C149.433 57.1725 149.245 56.1192 149.245 54.0806V47.016C149.245 44.2978 146.917 42.3185 144.312 42.1462C142.427 42.0277 141.125 42.8117 139.766 44.2322L139.433 44.5509V42.0331C139.016 42.2592 134.745 44.09 133.94 44.4605V48.8349C133.961 49.1225 133.94 49.3874 133.94 49.5952V58.6737H139.952V47.3918C139.952 46.1458 140.34 44.6102 141.725 44.6102C143.639 44.6102 143.362 47.3283 143.362 47.856V54.0892C143.362 57.7788 144.661 58.6662 147.149 58.6662H151.347V57.6226C150.952 57.6366 150.555 57.5882 150.174 57.4783ZM183.822 57.4783C183.084 57.1725 182.893 56.1192 182.893 54.0806V47.016C182.893 44.2978 180.566 42.3185 177.961 42.1462C176.077 42.0277 174.774 42.8117 173.414 44.2322L173.083 44.5509V42.0331C172.665 42.2592 168.393 44.09 167.59 44.4605V48.8349C167.612 49.1225 167.59 49.3874 167.59 49.5952V58.6737H173.605V47.3918C173.605 46.1458 173.993 44.6102 175.378 44.6102C177.29 44.6102 177.013 47.3283 177.013 47.856V54.0892C177.013 57.7788 178.312 58.6662 180.8 58.6662H185V57.6226C184.603 57.6366 184.205 57.5882 183.822 57.4783ZM114.486 58.6769L108.856 50.3771C112.064 48.7165 112.418 47.3649 112.418 45.7409C112.418 41.7068 108.2 41.584 106.494 41.9038C104.979 42.1871 103.184 43.0992 102.435 43.5074V31.0291C102.018 31.2552 100.217 32.3882 98.8034 33.086C98.0564 33.4737 97.1621 33.8883 96.3441 34.2598V58.6758H102.441V51.1374L102.555 51.3258L107.013 58.6963L114.486 58.6758V58.6769ZM106.496 46.33C106.318 49.5414 102.437 49.8968 102.437 49.8968V45.0646C103.127 44.6791 103.471 44.3851 104.141 44.2537C105.6 43.9597 106.596 44.5046 106.496 46.3311V46.33ZM52.6101 58.7846L52.5815 47.3154C52.5815 46.0392 53.0795 45.14 53.5521 45.14C54.2726 45.1109 55.1044 46.7058 56.2392 46.6197C56.8008 46.5777 57.3274 46.316 57.7121 45.8863C58.0977 45.4555 58.3139 44.8891 58.3171 44.3C58.3171 42.9075 57.0699 41.8662 55.7412 41.892C54.3001 41.9222 53.2193 42.9075 52.4151 44.1848L52.2636 44.4109C51.8111 42.494 50.6032 42.0126 48.6779 42.0126H44.4797V43.0572H44.6959C44.9449 43.0572 45.4164 43.1725 45.6665 43.2015C46.1793 43.3351 46.4527 44.0265 46.5523 45.2649C46.5523 46.008 46.5364 46.9815 46.5364 48.0262V58.7825L52.6101 58.7846ZM39.9181 42.1322C38.7123 41.8812 37.4662 41.9458 36.2901 42.3217C35.115 42.6975 34.0469 43.3728 33.1823 44.2871V34.6594L33.1282 34.0628C32.6821 32.1458 31.1245 31.6634 29.2003 31.6634H25V32.708H25.2162C25.4652 32.708 25.9356 32.8232 26.1868 32.8523C26.6763 32.9815 26.9444 33.6202 27.0525 34.7552C27.0525 36.5042 26.9698 48.9254 26.9698 51.4798C26.9709 56.5737 29.1568 59 34.5958 59C41.8625 59 44.004 54.8183 44.3738 51.0071C44.8951 45.7248 42.7971 42.7191 39.9181 42.1332V42.1322ZM34.8882 57.4492C33.0445 57.5149 33.1907 56.3325 33.1907 56.3325V45.6311C36.111 43.6065 38.4697 45.0582 38.5629 50.1972C38.6254 52.9466 37.8932 57.3523 34.8882 57.4492Z" fill="black"/>
</g>
<defs>
<clipPath id="clip0_1313_25735">
<rect width="210" height="89.9999" fill="white"/>
</clipPath>
</defs>
</svg>
